<svg xmlns="http://www.w3.org/2000/svg" viewBox="0 0 120 120" role="img" aria-label="compliancedevxuyen logo">
  <defs>
    <linearGradient id="g1" x1="0" y1="0" x2="1" y2="1">
      <stop offset="0%" stop-color="#9af0ff"/>
      <stop offset="100%" stop-color="#2ea8df"/>
    </linearGradient>
  </defs>
  <rect x="4" y="4" width="112" height="112" rx="28" fill="#082036" stroke="#74dfff" stroke-width="4"/>
  <path d="M34 62c0-16 11-28 26-28 10 0 17 5 24 12l-8 10c-5-5-9-8-15-8-9 0-15 7-15 15s6 15 15 15c7 0 12-3 16-9l9 9c-6 9-14 14-26 14-16 0-26-13-26-30z" fill="url(#g1)"/>
  <circle cx="86" cy="86" r="7" fill="#9af0ff"/>
</svg>