<svg xmlns="http://www.w3.org/2000/svg" viewBox="0 0 1920 320" preserveAspectRatio="none">
  <path fill="#70c9ef" fill-opacity="0.4" d="M0,128L48,117.3C96,107,192,85,288,106.7C384,128,480,192,576,218.7C672,245,768,235,864,197.3C960,160,1056,96,1152,90.7C1248,85,1344,139,1440,144C1536,149,1632,107,1728,85.3C1824,64,1920,64,2016,80C2112,96,2208,128,2304,154.7L2400,181L2400,320L2304,320C2208,320,2112,320,2016,320C1920,320,1824,320,1728,320C1632,320,1536,320,1440,320C1344,320,1248,320,1152,320C1056,320,960,320,864,320C768,320,672,320,576,320C480,320,384,320,288,320C192,320,96,320,48,320L0,320Z"/>
</svg>